<svg width="1920" height="1080" viewBox="0 0 1920 1080" fill="none" xmlns="http://www.w3.org/2000/svg">
<rect width="1920" height="1080" fill="#0E0E15"/>
<path d="M533.504 401.056H568.832V487.84L567.296 513.952H568.832C574.208 504.736 582.4 497.056 593.408 490.912C604.672 484.768 616.32 481.696 628.352 481.696C651.392 481.696 669.056 488.352 681.344 501.664C693.888 514.72 700.16 533.408 700.16 557.728V676H664.832V564.64C664.832 530.848 649.856 513.952 619.904 513.952C605.568 513.952 593.408 519.968 583.424 532C573.696 543.776 568.832 557.6 568.832 573.472V676H533.504V401.056ZM826.109 682.144C798.461 682.144 775.677 672.672 757.757 653.728C739.837 634.784 730.877 610.848 730.877 581.92C730.877 553.248 739.581 529.44 756.989 510.496C774.397 491.296 796.669 481.696 823.805 481.696C851.709 481.696 873.853 490.784 890.237 508.96C906.877 526.88 915.197 552.096 915.197 584.608L914.813 588.448H766.973C767.485 606.88 773.629 621.728 785.405 632.992C797.181 644.256 811.261 649.888 827.645 649.888C850.173 649.888 867.837 638.624 880.637 616.096L912.125 631.456C903.677 647.328 891.901 659.744 876.797 668.704C861.949 677.664 845.053 682.144 826.109 682.144ZM769.661 559.264H877.565C876.541 546.208 871.165 535.456 861.437 527.008C851.965 518.304 839.165 513.952 823.037 513.952C809.725 513.952 798.205 518.048 788.477 526.24C779.005 534.432 772.733 545.44 769.661 559.264ZM1033.23 580.384L1100.43 676H1058.95L1012.49 606.496L966.794 676H925.322L991.754 580.384L926.858 487.84H966.794L1013.26 554.272L1057.42 487.84H1098.89L1033.23 580.384ZM1170.58 422.944C1170.58 429.856 1168.14 435.744 1163.28 440.608C1158.42 445.472 1152.53 447.904 1145.62 447.904C1138.7 447.904 1132.82 445.472 1127.95 440.608C1123.09 435.744 1120.66 429.856 1120.66 422.944C1120.66 416.032 1123.09 410.144 1127.95 405.28C1132.82 400.416 1138.7 397.984 1145.62 397.984C1152.53 397.984 1158.42 400.416 1163.28 405.28C1168.14 410.144 1170.58 416.032 1170.58 422.944ZM1163.28 487.84V676H1127.95V487.84H1163.28ZM1291.86 649.888C1309.27 649.888 1323.48 643.616 1334.48 631.072C1346 618.528 1351.76 602.144 1351.76 581.92C1351.76 562.208 1346 545.952 1334.48 533.152C1323.22 520.352 1309.01 513.952 1291.86 513.952C1274.96 513.952 1260.76 520.352 1249.24 533.152C1237.72 545.952 1231.96 562.208 1231.96 581.92C1231.96 601.888 1237.72 618.144 1249.24 630.688C1260.76 643.488 1274.96 649.888 1291.86 649.888ZM1286.1 682.144C1261.52 682.144 1240.4 672.416 1222.74 652.96C1205.33 633.248 1196.63 609.568 1196.63 581.92C1196.63 554.272 1205.33 530.592 1222.74 510.88C1240.4 491.424 1261.52 481.696 1286.1 481.696C1299.92 481.696 1312.47 484.64 1323.73 490.528C1335.25 496.416 1344.08 504.224 1350.23 513.952H1351.76L1350.23 487.84V401.056H1385.56V676H1351.76V649.888H1350.23C1344.08 659.616 1335.25 667.424 1323.73 673.312C1312.47 679.2 1299.92 682.144 1286.1 682.144Z" fill="#BEA588"/>
</svg>
